<?xml version="1.0" encoding="utf-8"?>
<!-- Generator: Adobe Illustrator 22.1.0, SVG Export Plug-In . SVG Version: 6.00 Build 0)  -->
<svg version="1.1" id="Layer_1" xmlns="http://www.w3.org/2000/svg" xmlns:xlink="http://www.w3.org/1999/xlink" x="0px" y="0px"
	 viewBox="0 0 216 216" style="enable-background:new 0 0 216 216;" xml:space="preserve">
<style type="text/css">
	.st0{fill:#E6E6E7;}
	.st1{fill:#FFFFFF;}
	.st2{fill:#E8112D;}
	.st3{fill:#0085CA;}
	.st4{fill:#05345C;}
</style>
<circle class="st0" cx="108" cy="108" r="90"/>
<circle class="st1" cx="108" cy="108" r="85.5"/>
<circle class="st2" cx="4.5" cy="320" r="85.5"/>
<circle class="st3" cx="207.3" cy="337.3" r="85.5"/>
<g>
	<path class="st2" d="M98.3,89c49.3,12.7,58.7,26.7,84,13.3c3.9-2,7.3-4.3,10.3-6.7c-6-41.3-41.6-73.1-84.6-73.1
		c-47.2,0-85.5,38.3-85.5,85.5c0,0.3,0,0.6,0,0.8C40,96.1,68.3,81.3,98.3,89z"/>
	<path class="st4" d="M163.7,128.3c-34-20.7-59.3-36-73.7-26.7c-14.3,9.3-8.3,26.4-30.3,40.7c-8.4,5.4-17.6,7.6-25.8,8.2
		c14.8,25.7,42.4,43,74.2,43c35.7,0,66.2-21.8,79-52.9C181,138.1,173.3,134.2,163.7,128.3z"/>
</g>
</svg>
